<?xml version="1.0" encoding="utf-8"?>
<!-- Generator: Adobe Illustrator 22.1.0, SVG Export Plug-In . SVG Version: 6.00 Build 0)  -->
<svg version="1.1" id="Livello_1" xmlns="http://www.w3.org/2000/svg" xmlns:xlink="http://www.w3.org/1999/xlink" x="0px" y="0px"
	 viewBox="0 0 48.1 57.3" style="enable-background:new 0 0 48.1 57.3;" xml:space="preserve">
<style type="text/css">
	.st0{fill:#FFFFFF;}
</style>
<title>logo_telespazio</title>
<path class="st0" d="M18.5,23c0,0,8.1-13.1,21.7-17.7c0.1,0,0.9-0.4,1.2,0.2l3.4,4.5c0.1,0.2,0.3,0.5,0.3,0.7c0,0.4-0.1,0.9-0.7,0.9
	C44.4,11.6,28.2,14.4,18.5,23z M27,1.5c0.7-0.9,0.1-1.3-0.2-1.4c-0.2,0-0.4,0-0.6,0L21,0.4h-0.5c-0.2,0-0.4,0.1-0.6,0.3
	c-6.7,6.5-6,22.3-6,22.3C16.2,10.5,26,2.6,27,1.5z M7.8,10.8c-0.1-0.3-0.2-0.6-0.4-0.9C7.1,9.7,6.8,9.7,6.5,9.8
	c-0.2,0.2-0.5,0.5-0.6,0.8l-2,4c-0.1,0.2-0.2,0.5-0.2,0.7c0,0.2,0,0.4,0,0.6c0.6,2.5,7.4,7.5,7.4,7.5C8.6,19.3,7.9,12.4,7.8,10.8z
	 M10.3,26.8c0,0-5.9-1-8.1-2.8c-0.2-0.2-0.5-0.4-0.8-0.5c-0.3,0-0.6,0.1-0.8,0.3c-0.1,0.2-0.2,0.5-0.2,0.7L0,28.5c0,0,0,0.6,0.2,0.7
	c0.1,0.1,0.2,0.1,0.4,0.2c0.2,0,0.4,0,0.5,0l0.6-0.2L10.3,26.8z M10.9,30.8c0,0-5.3,3-7.3,5.3c-0.3,0.3-0.6,0.8-0.8,1.2
	c-0.1,0.4,0,0.8,0.1,1.2c0,0,0.5,2.4,0.9,3.9c0.1,0.4,0.3,0.8,0.6,1.2c0.4,0.3,1.2,0.8,1.8-1.4C6.1,42.2,9.4,32.4,10.9,30.8
	L10.9,30.8z M46,31.3c0.3,0,0.8,0.1,1,0.1c0.4,0,0.6-0.1,0.7-0.3s0.4-4.1,0.5-5c0-0.3,0-0.7,0-1c0-0.2-0.1-0.5-0.2-0.7
	c-0.3-0.2-0.6-0.4-0.9-0.4c-4.6-0.9-28.5,3.3-28.5,3.3C19,27.3,42.3,30.8,46,31.3z M37,48.6c1.5,0.8,2.1,0.6,2.4,0.3l3.5-4.2
	c1.8-1.8-0.7-2.1-0.7-2.1c-13.7-3-24.7-11.8-24.7-11.8C22.1,38.5,28.9,44.7,37,48.6z M14,31.2c0,0-1.9,15.5,5.2,24.7
	c0.2,0.3,0.5,0.6,0.8,0.9c0.2,0.2,0.5,0.4,0.8,0.5c0.3,0,0.7-0.1,1-0.2l4.6-0.8c0.4,0,0.7-0.1,1.1-0.2c0.3-0.2,0.4-0.5,0.3-0.8
	c0-0.1-0.1-0.2-0.1-0.4c-0.1-0.1-0.2-0.3-0.3-0.4l-3.6-3.8C23.7,50.7,14.8,40.4,14,31.2z"/>
</svg>
